<svg width="18" height="17" viewBox="0 0 18 17" fill="none" xmlns="http://www.w3.org/2000/svg">
<path d="M5 6C4.44772 6 4 6.44772 4 7C4 7.55228 4.44772 8 5 8C5.55228 8 6 7.55228 6 7C6 6.44772 5.55228 6 5 6Z" fill="#C4C4C4"/>
<path d="M4 10C4 9.44771 4.44772 9 5 9C5.55228 9 6 9.44771 6 10C6 10.5523 5.55228 11 5 11C4.44772 11 4 10.5523 4 10Z" fill="#C4C4C4"/>
<path d="M5 12C4.44772 12 4 12.4477 4 13C4 13.5523 4.44772 14 5 14C5.55228 14 6 13.5523 6 13C6 12.4477 5.55228 12 5 12Z" fill="#C4C4C4"/>
<path d="M8 7C8 6.44772 8.44771 6 9 6C9.55229 6 10 6.44772 10 7C10 7.55228 9.55229 8 9 8C8.44771 8 8 7.55228 8 7Z" fill="#C4C4C4"/>
<path d="M9 9C8.44771 9 8 9.44771 8 10C8 10.5523 8.44771 11 9 11C9.55229 11 10 10.5523 10 10C10 9.44771 9.55229 9 9 9Z" fill="#C4C4C4"/>
<path d="M8 13C8 12.4477 8.44771 12 9 12C9.55229 12 10 12.4477 10 13C10 13.5523 9.55229 14 9 14C8.44771 14 8 13.5523 8 13Z" fill="#C4C4C4"/>
<path d="M13 6C12.4477 6 12 6.44772 12 7C12 7.55228 12.4477 8 13 8C13.5523 8 14 7.55228 14 7C14 6.44772 13.5523 6 13 6Z" fill="#C4C4C4"/>
<path d="M12 10C12 9.44771 12.4477 9 13 9C13.5523 9 14 9.44771 14 10C14 10.5523 13.5523 11 13 11C12.4477 11 12 10.5523 12 10Z" fill="#C4C4C4"/>
<path d="M13 12C12.4477 12 12 12.4477 12 13C12 13.5523 12.4477 14 13 14C13.5523 14 14 13.5523 14 13C14 12.4477 13.5523 12 13 12Z" fill="#C4C4C4"/>
<path fill-rule="evenodd" clip-rule="evenodd" d="M6 0H5V2H2C0.895431 2 0 2.89543 0 4V15C0 16.1046 0.89543 17 2 17H16C17.1046 17 18 16.1046 18 15V4C18 2.89543 17.1046 2 16 2H13V0H12V2H6V0ZM12 4V3H6V4H5V3H2C1.44772 3 1 3.44772 1 4V15C1 15.5523 1.44772 16 2 16H16C16.5523 16 17 15.5523 17 15V4C17 3.44772 16.5523 3 16 3H13V4H12Z" fill="#C4C4C4"/>
</svg>
