<svg width="82" height="82" viewBox="0 0 82 82" fill="none" xmlns="http://www.w3.org/2000/svg">
<path d="M68.5443 63.8832C72.2244 59.4554 74.7839 54.2065 76.0063 48.5804C77.2288 42.9543 77.0782 37.1165 75.5673 31.5609C74.0564 26.0052 71.2297 20.8953 67.3262 16.6632C63.4228 12.4311 58.5574 9.20135 53.1418 7.24727C47.7262 5.29318 41.9195 4.6722 36.2132 5.43685C30.5068 6.2015 25.0685 8.32929 20.3583 11.6402C15.6482 14.9511 11.8048 19.3478 9.15323 24.4583C6.50167 29.5687 5.11997 35.2427 5.12501 41C5.12695 49.3696 8.07636 57.4712 13.4557 63.8832L13.4045 63.9267C13.5838 64.142 13.7888 64.3265 13.9733 64.5392C14.204 64.8031 14.4525 65.0517 14.6908 65.3079C15.4083 66.0869 16.1463 66.8352 16.9202 67.5373C17.156 67.7525 17.3994 67.9524 17.6377 68.1574C18.4577 68.8647 19.3008 69.536 20.1746 70.1613C20.2873 70.2382 20.3898 70.3381 20.5026 70.4175V70.3868C26.5042 74.6102 33.6638 76.8769 41.0026 76.8769C48.3413 76.8769 55.5009 74.6102 61.5026 70.3868V70.4175C61.6153 70.3381 61.7153 70.2382 61.8306 70.1613C62.7018 69.5335 63.5474 68.8647 64.3674 68.1574C64.6058 67.9524 64.8492 67.75 65.0849 67.5373C65.8588 66.8326 66.5968 66.0869 67.3143 65.3079C67.5526 65.0517 67.7986 64.8031 68.0318 64.5392C68.2138 64.3265 68.4213 64.142 68.6007 63.9242L68.5443 63.8832ZM41 20.5C43.2807 20.5 45.5101 21.1763 47.4064 22.4434C49.3027 23.7105 50.7807 25.5114 51.6535 27.6185C52.5263 29.7255 52.7546 32.0441 52.3097 34.2809C51.8648 36.5178 50.7665 38.5724 49.1538 40.1851C47.5412 41.7978 45.4865 42.896 43.2496 43.341C41.0128 43.7859 38.6943 43.5576 36.5872 42.6848C34.4801 41.812 32.6792 40.334 31.4121 38.4377C30.1451 36.5414 29.4688 34.312 29.4688 32.0313C29.4688 28.973 30.6837 26.04 32.8462 23.8775C35.0087 21.7149 37.9417 20.5 41 20.5ZM20.5179 63.8832C20.5624 60.5185 21.9298 57.3067 24.3242 54.9424C26.7186 52.5782 29.9476 51.2518 33.3125 51.25H48.6875C52.0524 51.2518 55.2814 52.5782 57.6758 54.9424C60.0703 57.3067 61.4376 60.5185 61.4821 63.8832C55.8621 68.9475 48.5652 71.7502 41 71.7502C33.4348 71.7502 26.1379 68.9475 20.5179 63.8832Z" fill="#949494"/>
</svg>
