<svg width="22" height="22" viewBox="0 0 22 22" fill="none" xmlns="http://www.w3.org/2000/svg">
<path fill-rule="evenodd" clip-rule="evenodd" d="M5.61123 4.31487C5.25325 3.95689 4.67285 3.95689 4.31487 4.31487C3.95689 4.67285 3.95689 5.25325 4.31487 5.61123L9.98869 11.285L4.60005 16.6737C4.24207 17.0317 4.24207 17.6121 4.60005 17.97C4.95803 18.328 5.53843 18.328 5.89641 17.97L11.285 12.5814L16.6737 17.97C17.0317 18.328 17.6121 18.328 17.97 17.97C18.328 17.6121 18.328 17.0317 17.97 16.6737L12.5814 11.285L18.2552 5.61123C18.6132 5.25325 18.6132 4.67285 18.2552 4.31487C17.8972 3.95689 17.3168 3.95689 16.9589 4.31487L11.285 9.98868L5.61123 4.31487Z" fill="#F2F2F2"/>
</svg>
