<svg width="15" height="15" viewBox="0 0 15 15" fill="none" xmlns="http://www.w3.org/2000/svg">
<path d="M13.7313 9.42262C13.8246 9.58413 13.8498 9.77606 13.8016 9.9562C13.7533 10.1363 13.6354 10.2899 13.4739 10.3831C13.3124 10.4764 13.1205 10.5017 12.9404 10.4534C12.7602 10.4051 12.6066 10.2873 12.5134 10.1257L11.5597 8.47381C11.022 8.80907 10.4438 9.07431 9.83895 9.26307L10.143 10.9875C10.1601 11.0789 10.1589 11.1728 10.1395 11.2637C10.1201 11.3546 10.0829 11.4407 10.03 11.5171C9.97705 11.5935 9.90951 11.6587 9.83125 11.7088C9.75299 11.759 9.66556 11.7931 9.57403 11.8093C9.48249 11.8254 9.38866 11.8232 9.29797 11.8029C9.20727 11.7825 9.12151 11.7444 9.04565 11.6907C8.96979 11.637 8.90533 11.5688 8.85599 11.49C8.80666 11.4112 8.77344 11.3235 8.75824 11.2318L8.46217 9.55282C7.82097 9.62835 7.17312 9.62815 6.53197 9.55223L6.23602 11.2311C6.20282 11.4139 6.09856 11.5762 5.94603 11.6825C5.79351 11.7887 5.60513 11.8302 5.42209 11.7979C5.23904 11.7656 5.07623 11.6622 4.96924 11.5102C4.86225 11.3582 4.81979 11.17 4.85115 10.9868L5.15531 9.26155C4.55135 9.07255 3.97395 8.80728 3.43711 8.47217L2.47711 10.1349C2.38387 10.2964 2.23029 10.4143 2.05017 10.4626C1.87004 10.5108 1.67811 10.4856 1.51661 10.3923C1.35511 10.2991 1.23727 10.1455 1.189 9.96537C1.14073 9.78525 1.166 9.59332 1.25924 9.43182L2.30543 7.61975C1.95272 7.30184 1.6258 6.95644 1.32774 6.5868C1.21237 6.44157 1.15905 6.25664 1.17941 6.07228C1.19977 5.88793 1.29214 5.71908 1.43642 5.60252C1.58069 5.48596 1.76518 5.43112 1.9497 5.44996C2.13422 5.4688 2.30382 5.55978 2.42156 5.70309C3.34301 6.84362 4.97186 8.20311 7.49971 8.20311C10.0274 8.20311 11.6563 6.84362 12.5778 5.70315C12.6355 5.63047 12.7071 5.56994 12.7883 5.52505C12.8696 5.48017 12.9589 5.45181 13.0512 5.44163C13.1434 5.43144 13.2368 5.43962 13.3259 5.4657C13.415 5.49178 13.498 5.53524 13.5702 5.59357C13.6424 5.6519 13.7024 5.72396 13.7466 5.80557C13.7908 5.88719 13.8184 5.97675 13.8278 6.06909C13.8373 6.16143 13.8283 6.25473 13.8015 6.3436C13.7747 6.43246 13.7305 6.51514 13.6716 6.58686C13.3729 6.95731 13.0452 7.3034 12.6916 7.62186L13.7313 9.42262Z" fill="#828282"/>
</svg>
