<svg width="15" height="11" viewBox="0 0 15 11" fill="none" xmlns="http://www.w3.org/2000/svg">
<path fill-rule="evenodd" clip-rule="evenodd" d="M0 5.15625C0 5.15625 2.8125 0 7.5 0C12.1875 0 15 5.15625 15 5.15625C15 5.15625 12.1875 10.3125 7.5 10.3125C2.8125 10.3125 0 5.15625 0 5.15625ZM7.5 8.4375C8.37024 8.4375 9.20484 8.0918 9.82019 7.47644C10.4355 6.86109 10.7812 6.02649 10.7812 5.15625C10.7812 4.28601 10.4355 3.45141 9.82019 2.83606C9.20484 2.2207 8.37024 1.875 7.5 1.875C6.62976 1.875 5.79516 2.2207 5.17981 2.83606C4.56445 3.45141 4.21875 4.28601 4.21875 5.15625C4.21875 6.02649 4.56445 6.86109 5.17981 7.47644C5.79516 8.0918 6.62976 8.4375 7.5 8.4375Z" fill="#388CA7"/>
</svg>
