<svg width="22" height="22" viewBox="0 0 22 22" fill="none" xmlns="http://www.w3.org/2000/svg">
<path fill-rule="evenodd" clip-rule="evenodd" d="M5.66855 5H5.18701H4.75828C4.33261 5 4.11103 4.51 4.41508 4.2121C4.52633 4.10311 4.64085 3.99495 4.75828 3.888C4.87642 3.7804 4.99751 3.67404 5.1212 3.56928C5.14857 3.54611 5.17606 3.52301 5.20368 3.5C6.3838 2.5166 7.78954 1.6851 9.12414 1.33223C11.1057 0.808298 13.2004 0.905917 15.1246 1.61187C17.0488 2.31782 18.7097 3.598 19.8823 5.2791C21.0548 6.9602 21.6825 8.96102 21.6803 11.0107C21.6782 13.0603 21.0462 15.0598 19.87 16.7384C18.6939 18.417 17.0303 19.6936 15.1046 20.3955C13.1789 21.0973 11.084 21.1905 9.10353 20.6623C7.77016 20.3067 6.37249 19.4804 5.19851 18.5C5.17117 18.4772 5.14395 18.4542 5.11685 18.4313C4.99363 18.3267 4.87299 18.2204 4.75528 18.1129C4.63763 18.0055 4.5229 17.8968 4.41145 17.7872C4.10829 17.4891 4.33011 17 4.75528 17H5.18552H5.6656H5.76091H6.02893C6.12764 17 6.22458 17.0291 6.30589 17.0851C6.76488 17.4009 7.0945 17.6836 7.38888 17.936C7.98306 18.4455 8.43369 18.8319 9.51479 19.1202C11.1791 19.5641 12.9397 19.4858 14.5581 18.8959C16.1765 18.3061 17.5745 17.2332 18.563 15.8225C19.5514 14.4118 20.0825 12.7315 20.0843 11.009C20.0862 9.28644 19.5587 7.60496 18.5732 6.19216C17.5878 4.77936 16.192 3.7035 14.5749 3.11021C12.9578 2.51693 11.1974 2.4349 9.53211 2.87521C7.94394 3.29513 7.34838 3.6506 6.3316 4.82327C6.23524 4.9344 6.09549 5 5.9484 5H5.76493H5.66855ZM4.18032 12V13.4482C4.18032 13.8631 3.70411 14.0975 3.37532 13.8444L0.195003 11.3962C-0.0650009 11.1961 -0.0650011 10.8039 0.195003 10.6038L3.37532 8.15559C3.70411 7.90249 4.18032 8.13687 4.18032 8.55179V10H12.1803C12.4565 10 12.6803 10.2239 12.6803 10.5V11.5C12.6803 11.7761 12.4565 12 12.1803 12H4.18032Z" fill="#333333"/>
</svg>
