<svg width="17" height="17" viewBox="0 0 17 17" fill="none" xmlns="http://www.w3.org/2000/svg">
<g filter="url(#filter0_d)">
<path fill-rule="evenodd" clip-rule="evenodd" d="M8.5 0C7.67157 0 7 0.671573 7 1.5V6H2.5C1.67157 6 1 6.67157 1 7.5C1 8.32843 1.67157 9 2.5 9H7V13.5C7 14.3284 7.67157 15 8.5 15C9.32843 15 10 14.3284 10 13.5V9H14.5C15.3284 9 16 8.32843 16 7.5C16 6.67157 15.3284 6 14.5 6H10V1.5C10 0.671573 9.32843 0 8.5 0Z" fill="white"/>
</g>
<defs>
<filter id="filter0_d" x="0" y="0" width="17" height="17" filterUnits="userSpaceOnUse" color-interpolation-filters="sRGB">
<feFlood flood-opacity="0" result="BackgroundImageFix"/>
<feColorMatrix in="SourceAlpha" type="matrix" values="0 0 0 0 0 0 0 0 0 0 0 0 0 0 0 0 0 0 127 0"/>
<feOffset dy="1"/>
<feGaussianBlur stdDeviation="0.5"/>
<feColorMatrix type="matrix" values="0 0 0 0 0 0 0 0 0 0 0 0 0 0 0 0 0 0 0.25 0"/>
<feBlend mode="normal" in2="BackgroundImageFix" result="effect1_dropShadow"/>
<feBlend mode="normal" in="SourceGraphic" in2="effect1_dropShadow" result="shape"/>
</filter>
</defs>
</svg>
