<svg width="14" height="15" viewBox="0 0 14 15" fill="none" xmlns="http://www.w3.org/2000/svg">
<path fill-rule="evenodd" clip-rule="evenodd" d="M6 9H13C13.2652 9 13.5196 9.10536 13.7071 9.29289C13.8946 9.48043 14 9.73478 14 10C14 10.2652 13.8946 10.5196 13.7071 10.7071C13.5196 10.8946 13.2652 11 13 11H6C5.73478 11 5.48043 10.8946 5.29289 10.7071C5.10536 10.5196 5 10.2652 5 10C5 9.73478 5.10536 9.48043 5.29289 9.29289C5.48043 9.10536 5.73478 9 6 9ZM6 13H13C13.2652 13 13.5196 13.1054 13.7071 13.2929C13.8946 13.4804 14 13.7348 14 14C14 14.2652 13.8946 14.5196 13.7071 14.7071C13.5196 14.8946 13.2652 15 13 15H6C5.73478 15 5.48043 14.8946 5.29289 14.7071C5.10536 14.5196 5 14.2652 5 14C5 13.7348 5.10536 13.4804 5.29289 13.2929C5.48043 13.1054 5.73478 13 6 13ZM9 5H13C13.2652 5 13.5196 5.10536 13.7071 5.29289C13.8946 5.48043 14 5.73478 14 6C14 6.26522 13.8946 6.51957 13.7071 6.70711C13.5196 6.89464 13.2652 7 13 7H9C8.73478 7 8.48043 6.89464 8.29289 6.70711C8.10536 6.51957 8 6.26522 8 6C8 5.73478 8.10536 5.48043 8.29289 5.29289C8.48043 5.10536 8.73478 5 9 5Z" fill="#949494"/>
<path d="M6 4L1.27146e-07 8L4.76837e-07 -2.62268e-07L6 4Z" fill="#949494"/>
<circle cx="3" cy="10" r="1" fill="#949494"/>
<circle cx="3" cy="14" r="1" fill="#949494"/>
</svg>
