<svg width="26" height="25" viewBox="0 0 26 25" fill="none" xmlns="http://www.w3.org/2000/svg">
<path fill-rule="evenodd" clip-rule="evenodd" d="M13.5715 6.29291C15.4475 8.16882 15.4475 11.2103 13.5715 13.0862C11.6956 14.9621 8.65419 14.9621 6.77828 13.0862C4.90237 11.2103 4.90237 8.16882 6.77828 6.29291C8.65419 4.417 11.6956 4.417 13.5715 6.29291ZM15.721 13.6322C17.6146 10.9751 17.3696 7.2625 14.9858 4.8787C12.3288 2.22174 8.02103 2.22174 5.36407 4.8787C2.70711 7.53566 2.70711 11.8434 5.36407 14.5004C7.74782 16.8841 11.4603 17.1293 14.1174 15.2357L19.4408 20.5592L21.0444 18.9556L15.721 13.6322Z" fill="#4F4F4F"/>
</svg>
