<svg width="22" height="22" viewBox="0 0 22 22" fill="none" xmlns="http://www.w3.org/2000/svg">
<path d="M11.061 6.72217C8.67765 6.72217 6.7832 8.61661 6.7832 10.9999C6.7832 13.3833 8.67765 15.2777 11.061 15.2777C13.4443 15.2777 15.3388 13.3833 15.3388 10.9999C15.3388 8.61661 13.4443 6.72217 11.061 6.72217ZM11.061 14.0555C9.34987 14.0555 8.00543 12.7111 8.00543 10.9999C8.00543 9.28883 9.34987 7.94439 11.061 7.94439C12.7721 7.94439 14.1165 9.28883 14.1165 10.9999C14.1165 12.7111 12.7721 14.0555 11.061 14.0555Z" fill="#333333"/>
<path d="M21.175 8.73125L19.25 8.1125L18.8375 7.08125L19.8 5.29375C20.0062 4.88125 19.9375 4.33125 19.5938 3.9875L17.9438 2.3375C17.6 1.99375 17.05 1.925 16.6375 2.13125L14.85 3.09375L13.8188 2.68125L13.2 0.75625C13.0625 0.34375 12.65 0 12.1688 0H9.83125C9.35 0 8.9375 0.34375 8.86875 0.825L8.25 2.75C7.8375 2.81875 7.49375 2.95625 7.15 3.1625L5.3625 2.2C4.95 1.99375 4.4 2.0625 4.05625 2.40625L2.40625 4.05625C2.0625 4.4 1.99375 4.95 2.2 5.3625L3.09375 7.08125C2.95625 7.425 2.81875 7.8375 2.68125 8.18125L0.75625 8.8C0.34375 8.9375 0 9.35 0 9.83125V12.1688C0 12.65 0.34375 13.0625 0.825 13.2L2.75 13.8188L3.1625 14.85L2.2 16.6375C1.99375 17.05 2.0625 17.6 2.40625 17.9438L4.05625 19.5938C4.4 19.9375 4.95 20.0062 5.3625 19.8L7.15 18.8375L8.18125 19.25L8.8 21.2438C8.9375 21.6563 9.35 22 9.83125 22H12.1688C12.65 22 13.0625 21.6563 13.2 21.2438L13.8188 19.25L14.85 18.8375L16.6375 19.8C17.05 20.0062 17.6 19.9375 17.9438 19.5938L19.5938 17.9438C19.9375 17.6 20.0062 17.05 19.8 16.6375L18.8375 14.85L19.25 13.8188L21.2438 13.2C21.6563 13.0625 22 12.65 22 12.1688V9.83125C22 9.35 21.6562 8.86875 21.175 8.73125ZM20.625 11.9625L18.15 12.7188L18.0812 13.0625L17.4625 14.5063L17.2563 14.85L18.4937 17.1187L17.1187 18.4937L14.85 17.2563L14.5063 17.4625C14.025 17.7375 13.5438 17.9437 13.0625 18.0812L12.7188 18.15L11.9625 20.625H10.0375L9.28125 18.15L8.9375 18.0812L7.49375 17.4625L7.15 17.2563L4.88125 18.4937L3.50625 17.1187L4.74375 14.85L4.5375 14.5063C4.2625 14.025 4.05625 13.5438 3.91875 13.0625L3.85 12.7188L1.375 11.9625V10.0375L3.7125 9.35L3.85 9.00625C3.9875 8.45625 4.19375 7.975 4.46875 7.49375L4.675 7.15L3.50625 4.88125L4.88125 3.50625L7.08125 4.74375L7.425 4.5375C7.90625 4.2625 8.3875 4.05625 8.9375 3.91875L9.28125 3.78125L10.0375 1.375H11.9625L12.7188 3.78125L13.0625 3.91875C13.5438 4.05625 14.025 4.2625 14.5063 4.5375L14.85 4.74375L17.1187 3.50625L18.4937 4.88125L17.2563 7.15L17.4625 7.49375C17.7375 7.975 17.9437 8.45625 18.0812 8.9375L18.15 9.28125L20.625 10.0375V11.9625Z" fill="#333333"/>
</svg>
