<svg width="775" height="110" viewBox="0 0 775 110" fill="none" xmlns="http://www.w3.org/2000/svg">
<g opacity="0.6" filter="url(#filter0_dddddd)">
<path d="M70.3514 73H61.0794C60.1168 73 59.3061 72.7467 58.6474 72.24C58.0141 71.7333 57.4188 70.986 56.8614 69.998L45.1574 51.53C44.8534 50.998 44.5241 50.5673 44.1694 50.238C43.8401 49.8833 43.4728 49.6047 43.0674 49.402C42.6874 49.174 42.2441 49.022 41.7374 48.946C41.2561 48.87 40.6988 48.832 40.0654 48.832H33.9474V73H23.7254V18.052H33.9474V41.08H39.1154C40.1541 41.08 41.0534 40.9027 41.8134 40.548C42.5734 40.1933 43.2828 39.5347 43.9414 38.572L55.9874 20.788C56.4941 19.9773 57.0894 19.3187 57.7734 18.812C58.4574 18.3053 59.2808 18.052 60.2434 18.052H68.9834L54.0494 40.092C53.4161 41.0547 52.6814 41.8527 51.8454 42.486C51.0094 43.1193 50.0848 43.6133 49.0714 43.968C50.5914 44.3987 51.8708 45.0827 52.9094 46.02C53.9734 46.932 54.9868 48.1987 55.9494 49.82L70.3514 73ZM89.4446 33.404C92.3326 33.404 94.9546 33.8727 97.3106 34.81C99.692 35.7473 101.719 37.0773 103.391 38.8C105.088 40.5227 106.393 42.6253 107.305 45.108C108.217 47.5907 108.673 50.3647 108.673 53.43C108.673 56.5207 108.217 59.3073 107.305 61.79C106.393 64.2727 105.088 66.388 103.391 68.136C101.719 69.884 99.692 71.2267 97.3106 72.164C94.9546 73.1013 92.3326 73.57 89.4446 73.57C86.5313 73.57 83.884 73.1013 81.5026 72.164C79.1213 71.2267 77.082 69.884 75.3846 68.136C73.7126 66.388 72.408 64.2727 71.4706 61.79C70.5586 59.3073 70.1026 56.5207 70.1026 53.43C70.1026 50.3647 70.5586 47.5907 71.4706 45.108C72.408 42.6253 73.7126 40.5227 75.3846 38.8C77.082 37.0773 79.1213 35.7473 81.5026 34.81C83.884 33.8727 86.5313 33.404 89.4446 33.404ZM89.4446 66.35C92.6873 66.35 95.0813 65.2607 96.6266 63.082C98.1973 60.9033 98.9826 57.7113 98.9826 53.506C98.9826 49.3007 98.1973 46.096 96.6266 43.892C95.0813 41.688 92.6873 40.586 89.4446 40.586C86.1513 40.586 83.7066 41.7007 82.1106 43.93C80.54 46.134 79.7546 49.326 79.7546 53.506C79.7546 57.686 80.54 60.878 82.1106 63.082C83.7066 65.2607 86.1513 66.35 89.4446 66.35ZM161.015 33.936V73H152.541V51.264C152.541 50.3773 152.579 49.3767 152.655 48.262C152.757 47.1473 152.909 46.1087 153.111 45.146L141.635 66.198C141.078 67.2873 140.191 67.832 138.975 67.832H137.987C136.771 67.832 135.885 67.2873 135.327 66.198L123.699 45.032C123.877 45.9947 124.016 47.046 124.117 48.186C124.244 49.326 124.307 50.352 124.307 51.264V73H115.833V33.936H123.585C124.244 33.936 124.89 34.0753 125.523 34.354C126.182 34.6327 126.727 35.19 127.157 36.026L136.353 52.442C136.759 53.202 137.139 54.0127 137.493 54.874C137.848 55.71 138.177 56.5587 138.481 57.42C138.785 56.5587 139.102 55.6973 139.431 54.836C139.786 53.9747 140.166 53.1767 140.571 52.442L149.691 36.026C150.147 35.1647 150.692 34.6073 151.325 34.354C151.959 34.0753 152.605 33.936 153.263 33.936H161.015ZM190.906 56.356C188.195 56.4827 185.915 56.7233 184.066 57.078C182.216 57.4073 180.734 57.838 179.62 58.37C178.505 58.902 177.707 59.5227 177.226 60.232C176.744 60.9413 176.504 61.714 176.504 62.55C176.504 64.1967 176.985 65.3747 177.948 66.084C178.936 66.7933 180.215 67.148 181.786 67.148C183.711 67.148 185.37 66.806 186.764 66.122C188.182 65.4127 189.563 64.3487 190.906 62.93V56.356ZM169.398 39.446C173.882 35.342 179.278 33.29 185.586 33.29C187.866 33.29 189.905 33.67 191.704 34.43C193.502 35.1647 195.022 36.2033 196.264 37.546C197.505 38.8633 198.442 40.4467 199.076 42.296C199.734 44.1453 200.064 46.172 200.064 48.376V73H195.808C194.921 73 194.237 72.8733 193.756 72.62C193.274 72.3413 192.894 71.7967 192.616 70.986L191.78 68.174C190.792 69.0607 189.829 69.846 188.892 70.53C187.954 71.1887 186.979 71.746 185.966 72.202C184.952 72.658 183.863 73 182.698 73.228C181.558 73.4813 180.291 73.608 178.898 73.608C177.251 73.608 175.731 73.3927 174.338 72.962C172.944 72.506 171.741 71.8347 170.728 70.948C169.714 70.0613 168.929 68.9593 168.372 67.642C167.814 66.3247 167.536 64.792 167.536 63.044C167.536 62.056 167.7 61.0807 168.03 60.118C168.359 59.13 168.891 58.1927 169.626 57.306C170.386 56.4193 171.361 55.5833 172.552 54.798C173.742 54.0127 175.199 53.3287 176.922 52.746C178.67 52.1633 180.696 51.6947 183.002 51.34C185.307 50.96 187.942 50.732 190.906 50.656V48.376C190.906 45.7667 190.348 43.8413 189.234 42.6C188.119 41.3333 186.51 40.7 184.408 40.7C182.888 40.7 181.621 40.8773 180.608 41.232C179.62 41.5867 178.746 41.992 177.986 42.448C177.226 42.8787 176.529 43.2713 175.896 43.626C175.288 43.9807 174.604 44.158 173.844 44.158C173.185 44.158 172.628 43.9933 172.172 43.664C171.716 43.3093 171.348 42.904 171.07 42.448L169.398 39.446ZM242.876 34.012V73H233.49V55.748H218.29V73H208.904V34.012H218.29V48.794H233.49V34.012H242.876ZM278.165 66.312V41.194H268.589C268.336 44.462 268.019 47.4133 267.639 50.048C267.259 52.6573 266.816 54.988 266.309 57.04C265.802 59.092 265.245 60.878 264.637 62.398C264.054 63.918 263.421 65.2227 262.737 66.312H278.165ZM294.429 66.046V83.26C294.429 84.1213 294.176 84.8053 293.669 85.312C293.188 85.8187 292.554 86.072 291.769 86.072H285.917V73H256.733V83.412C256.733 84.0707 256.518 84.6787 256.087 85.236C255.682 85.7933 255.036 86.072 254.149 86.072H248.221V66.312H249.323C250.21 66.312 251.071 66.198 251.907 65.97C252.743 65.7167 253.541 65.21 254.301 64.45C255.086 63.69 255.821 62.6007 256.505 61.182C257.214 59.738 257.848 57.8253 258.405 55.444C258.962 53.0373 259.444 50.086 259.849 46.59C260.28 43.094 260.622 38.9013 260.875 34.012H287.285V66.046H294.429ZM320.937 56.356C318.226 56.4827 315.946 56.7233 314.097 57.078C312.248 57.4073 310.766 57.838 309.651 58.37C308.536 58.902 307.738 59.5227 307.257 60.232C306.776 60.9413 306.535 61.714 306.535 62.55C306.535 64.1967 307.016 65.3747 307.979 66.084C308.967 66.7933 310.246 67.148 311.817 67.148C313.742 67.148 315.402 66.806 316.795 66.122C318.214 65.4127 319.594 64.3487 320.937 62.93V56.356ZM299.429 39.446C303.913 35.342 309.309 33.29 315.617 33.29C317.897 33.29 319.936 33.67 321.735 34.43C323.534 35.1647 325.054 36.2033 326.295 37.546C327.536 38.8633 328.474 40.4467 329.107 42.296C329.766 44.1453 330.095 46.172 330.095 48.376V73H325.839C324.952 73 324.268 72.8733 323.787 72.62C323.306 72.3413 322.926 71.7967 322.647 70.986L321.811 68.174C320.823 69.0607 319.86 69.846 318.923 70.53C317.986 71.1887 317.01 71.746 315.997 72.202C314.984 72.658 313.894 73 312.729 73.228C311.589 73.4813 310.322 73.608 308.929 73.608C307.282 73.608 305.762 73.3927 304.369 72.962C302.976 72.506 301.772 71.8347 300.759 70.948C299.746 70.0613 298.96 68.9593 298.403 67.642C297.846 66.3247 297.567 64.792 297.567 63.044C297.567 62.056 297.732 61.0807 298.061 60.118C298.39 59.13 298.922 58.1927 299.657 57.306C300.417 56.4193 301.392 55.5833 302.583 54.798C303.774 54.0127 305.23 53.3287 306.953 52.746C308.701 52.1633 310.728 51.6947 313.033 51.34C315.338 50.96 317.973 50.732 320.937 50.656V48.376C320.937 45.7667 320.38 43.8413 319.265 42.6C318.15 41.3333 316.542 40.7 314.439 40.7C312.919 40.7 311.652 40.8773 310.639 41.232C309.651 41.5867 308.777 41.992 308.017 42.448C307.257 42.8787 306.56 43.2713 305.927 43.626C305.319 43.9807 304.635 44.158 303.875 44.158C303.216 44.158 302.659 43.9933 302.203 43.664C301.747 43.3093 301.38 42.904 301.101 42.448L299.429 39.446ZM366.801 62.892C367.865 64.184 369.018 65.096 370.259 65.628C371.526 66.16 372.894 66.426 374.363 66.426C375.782 66.426 377.061 66.16 378.201 65.628C379.341 65.096 380.304 64.2853 381.089 63.196C381.9 62.1067 382.521 60.7387 382.951 59.092C383.382 57.42 383.597 55.4567 383.597 53.202C383.597 50.922 383.407 48.9967 383.027 47.426C382.673 45.83 382.153 44.538 381.469 43.55C380.785 42.562 379.949 41.84 378.961 41.384C377.999 40.928 376.897 40.7 375.655 40.7C373.705 40.7 372.045 41.118 370.677 41.954C369.309 42.7647 368.017 43.9173 366.801 45.412V62.892ZM366.307 39.332C367.903 37.5333 369.715 36.0767 371.741 34.962C373.768 33.8473 376.149 33.29 378.885 33.29C381.013 33.29 382.951 33.7333 384.699 34.62C386.473 35.5067 387.993 36.7987 389.259 38.496C390.551 40.168 391.539 42.2453 392.223 44.728C392.933 47.1853 393.287 50.01 393.287 53.202C393.287 56.1153 392.895 58.8133 392.109 61.296C391.324 63.7787 390.197 65.932 388.727 67.756C387.283 69.58 385.523 71.0113 383.445 72.05C381.393 73.0633 379.088 73.57 376.529 73.57C374.351 73.57 372.489 73.2407 370.943 72.582C369.398 71.898 368.017 70.9607 366.801 69.77V85.73H357.415V34.012H363.153C364.369 34.012 365.167 34.582 365.547 35.722L366.307 39.332ZM421.132 56.356C418.422 56.4827 416.142 56.7233 414.292 57.078C412.443 57.4073 410.961 57.838 409.846 58.37C408.732 58.902 407.934 59.5227 407.452 60.232C406.971 60.9413 406.73 61.714 406.73 62.55C406.73 64.1967 407.212 65.3747 408.174 66.084C409.162 66.7933 410.442 67.148 412.012 67.148C413.938 67.148 415.597 66.806 416.99 66.122C418.409 65.4127 419.79 64.3487 421.132 62.93V56.356ZM399.624 39.446C404.108 35.342 409.504 33.29 415.812 33.29C418.092 33.29 420.132 33.67 421.93 34.43C423.729 35.1647 425.249 36.2033 426.49 37.546C427.732 38.8633 428.669 40.4467 429.302 42.296C429.961 44.1453 430.29 46.172 430.29 48.376V73H426.034C425.148 73 424.464 72.8733 423.982 72.62C423.501 72.3413 423.121 71.7967 422.842 70.986L422.006 68.174C421.018 69.0607 420.056 69.846 419.118 70.53C418.181 71.1887 417.206 71.746 416.192 72.202C415.179 72.658 414.09 73 412.924 73.228C411.784 73.4813 410.518 73.608 409.124 73.608C407.478 73.608 405.958 73.3927 404.564 72.962C403.171 72.506 401.968 71.8347 400.954 70.948C399.941 70.0613 399.156 68.9593 398.598 67.642C398.041 66.3247 397.762 64.792 397.762 63.044C397.762 62.056 397.927 61.0807 398.256 60.118C398.586 59.13 399.118 58.1927 399.852 57.306C400.612 56.4193 401.588 55.5833 402.778 54.798C403.969 54.0127 405.426 53.3287 407.148 52.746C408.896 52.1633 410.923 51.6947 413.228 51.34C415.534 50.96 418.168 50.732 421.132 50.656V48.376C421.132 45.7667 420.575 43.8413 419.46 42.6C418.346 41.3333 416.737 40.7 414.634 40.7C413.114 40.7 411.848 40.8773 410.834 41.232C409.846 41.5867 408.972 41.992 408.212 42.448C407.452 42.8787 406.756 43.2713 406.122 43.626C405.514 43.9807 404.83 44.158 404.07 44.158C403.412 44.158 402.854 43.9933 402.398 43.664C401.942 43.3093 401.575 42.904 401.296 42.448L399.624 39.446ZM436.85 38.23C438.319 36.8113 440.143 35.6587 442.322 34.772C444.501 33.86 447.11 33.404 450.15 33.404C452.557 33.404 454.697 33.6953 456.572 34.278C458.447 34.8353 460.017 35.608 461.284 36.596C462.576 37.5587 463.551 38.6733 464.21 39.94C464.894 41.1813 465.236 42.486 465.236 43.854C465.236 44.5887 465.122 45.3613 464.894 46.172C464.691 46.9573 464.337 47.73 463.83 48.49C463.349 49.25 462.703 49.9593 461.892 50.618C461.081 51.2513 460.081 51.796 458.89 52.252C461.018 53.0627 462.728 54.2533 464.02 55.824C465.337 57.3947 465.996 59.3327 465.996 61.638C465.996 63.538 465.553 65.2227 464.666 66.692C463.805 68.1613 462.652 69.4153 461.208 70.454C459.764 71.4673 458.105 72.24 456.23 72.772C454.381 73.304 452.468 73.57 450.492 73.57C449.377 73.57 448.174 73.4687 446.882 73.266C445.615 73.0633 444.336 72.7213 443.044 72.24C441.752 71.7333 440.485 71.0747 439.244 70.264C438.003 69.428 436.875 68.402 435.862 67.186L438.56 63.766C438.94 63.1833 439.51 62.892 440.27 62.892C440.853 62.892 441.41 63.082 441.942 63.462C442.474 63.8167 443.082 64.222 443.766 64.678C444.475 65.1087 445.311 65.514 446.274 65.894C447.237 66.2487 448.44 66.426 449.884 66.426C452.24 66.426 454.026 65.894 455.242 64.83C456.458 63.766 457.066 62.436 457.066 60.84C457.066 59.2693 456.433 58.0407 455.166 57.154C453.925 56.2673 451.898 55.824 449.086 55.824H444.678V49.706H449.086C451.543 49.706 453.431 49.2753 454.748 48.414C456.065 47.5527 456.724 46.4127 456.724 44.994C456.724 43.702 456.141 42.638 454.976 41.802C453.836 40.966 452.139 40.548 449.884 40.548C448.541 40.548 447.401 40.6873 446.464 40.966C445.527 41.2447 444.716 41.5487 444.032 41.878C443.373 42.182 442.816 42.4733 442.36 42.752C441.904 43.0307 441.473 43.17 441.068 43.17C440.637 43.17 440.27 43.094 439.966 42.942C439.662 42.7647 439.333 42.3973 438.978 41.84L436.85 38.23ZM482.731 62.892C483.795 64.184 484.948 65.096 486.189 65.628C487.456 66.16 488.824 66.426 490.293 66.426C491.712 66.426 492.991 66.16 494.131 65.628C495.271 65.096 496.234 64.2853 497.019 63.196C497.83 62.1067 498.45 60.7387 498.881 59.092C499.312 57.42 499.527 55.4567 499.527 53.202C499.527 50.922 499.337 48.9967 498.957 47.426C498.602 45.83 498.083 44.538 497.399 43.55C496.715 42.562 495.879 41.84 494.891 41.384C493.928 40.928 492.826 40.7 491.585 40.7C489.634 40.7 487.975 41.118 486.607 41.954C485.239 42.7647 483.947 43.9173 482.731 45.412V62.892ZM482.237 39.332C483.833 37.5333 485.644 36.0767 487.671 34.962C489.698 33.8473 492.079 33.29 494.815 33.29C496.943 33.29 498.881 33.7333 500.629 34.62C502.402 35.5067 503.922 36.7987 505.189 38.496C506.481 40.168 507.469 42.2453 508.153 44.728C508.862 47.1853 509.217 50.01 509.217 53.202C509.217 56.1153 508.824 58.8133 508.039 61.296C507.254 63.7787 506.126 65.932 504.657 67.756C503.213 69.58 501.452 71.0113 499.375 72.05C497.323 73.0633 495.018 73.57 492.459 73.57C490.28 73.57 488.418 73.2407 486.873 72.582C485.328 71.898 483.947 70.9607 482.731 69.77V85.73H473.345V34.012H479.083C480.299 34.012 481.097 34.582 481.477 35.722L482.237 39.332ZM537.062 56.356C534.351 56.4827 532.071 56.7233 530.222 57.078C528.373 57.4073 526.891 57.838 525.776 58.37C524.661 58.902 523.863 59.5227 523.382 60.232C522.901 60.9413 522.66 61.714 522.66 62.55C522.66 64.1967 523.141 65.3747 524.104 66.084C525.092 66.7933 526.371 67.148 527.942 67.148C529.867 67.148 531.527 66.806 532.92 66.122C534.339 65.4127 535.719 64.3487 537.062 62.93V56.356ZM515.554 39.446C520.038 35.342 525.434 33.29 531.742 33.29C534.022 33.29 536.061 33.67 537.86 34.43C539.659 35.1647 541.179 36.2033 542.42 37.546C543.661 38.8633 544.599 40.4467 545.232 42.296C545.891 44.1453 546.22 46.172 546.22 48.376V73H541.964C541.077 73 540.393 72.8733 539.912 72.62C539.431 72.3413 539.051 71.7967 538.772 70.986L537.936 68.174C536.948 69.0607 535.985 69.846 535.048 70.53C534.111 71.1887 533.135 71.746 532.122 72.202C531.109 72.658 530.019 73 528.854 73.228C527.714 73.4813 526.447 73.608 525.054 73.608C523.407 73.608 521.887 73.3927 520.494 72.962C519.101 72.506 517.897 71.8347 516.884 70.948C515.871 70.0613 515.085 68.9593 514.528 67.642C513.971 66.3247 513.692 64.792 513.692 63.044C513.692 62.056 513.857 61.0807 514.186 60.118C514.515 59.13 515.047 58.1927 515.782 57.306C516.542 56.4193 517.517 55.5833 518.708 54.798C519.899 54.0127 521.355 53.3287 523.078 52.746C524.826 52.1633 526.853 51.6947 529.158 51.34C531.463 50.96 534.098 50.732 537.062 50.656V48.376C537.062 45.7667 536.505 43.8413 535.39 42.6C534.275 41.3333 532.667 40.7 530.564 40.7C529.044 40.7 527.777 40.8773 526.764 41.232C525.776 41.5867 524.902 41.992 524.142 42.448C523.382 42.8787 522.685 43.2713 522.052 43.626C521.444 43.9807 520.76 44.158 520 44.158C519.341 44.158 518.784 43.9933 518.328 43.664C517.872 43.3093 517.505 42.904 517.226 42.448L515.554 39.446ZM573.376 66.73C576.618 66.73 579.038 65.6913 580.634 63.614C582.23 61.5367 583.028 58.4967 583.028 54.494C583.028 50.5167 582.242 47.4893 580.672 45.412C579.126 43.3347 576.758 42.296 573.566 42.296C570.374 42.296 567.942 43.284 566.27 45.26C564.598 47.2107 563.762 50.1367 563.762 54.038C563.762 58.1673 564.547 61.3213 566.118 63.5C567.714 65.6533 570.133 66.73 573.376 66.73ZM576.112 26.944C573.73 27.096 571.691 27.5647 569.994 28.35C568.322 29.11 566.928 30.1487 565.814 31.466C564.724 32.758 563.888 34.316 563.306 36.14C562.748 37.9387 562.419 39.94 562.318 42.144C562.951 41.156 563.724 40.2567 564.636 39.446C565.573 38.61 566.612 37.9007 567.752 37.318C568.917 36.71 570.171 36.2413 571.514 35.912C572.882 35.5827 574.338 35.418 575.884 35.418C578.468 35.418 580.798 35.874 582.876 36.786C584.953 37.698 586.714 38.99 588.158 40.662C589.627 42.334 590.742 44.348 591.502 46.704C592.287 49.0347 592.68 51.6187 592.68 54.456C592.68 57.3947 592.211 60.042 591.274 62.398C590.362 64.754 589.057 66.768 587.36 68.44C585.688 70.0867 583.661 71.3533 581.28 72.24C578.898 73.1267 576.264 73.57 573.376 73.57C570.564 73.57 567.967 73.114 565.586 72.202C563.23 71.29 561.19 69.808 559.468 67.756C557.745 65.704 556.402 63.044 555.44 59.776C554.477 56.4827 553.996 52.4673 553.996 47.73C553.996 43.7527 554.363 40.054 555.098 36.634C555.832 33.214 557.036 30.2247 558.708 27.666C560.38 25.082 562.571 23.0047 565.282 21.434C567.992 19.8633 571.336 18.926 575.314 18.622L589.184 17.558L589.678 22.422C589.779 23.4607 589.627 24.3473 589.222 25.082C588.816 25.7913 588.094 26.1713 587.056 26.222L576.112 26.944ZM617.214 33.404C620.102 33.404 622.724 33.8727 625.08 34.81C627.462 35.7473 629.488 37.0773 631.16 38.8C632.858 40.5227 634.162 42.6253 635.074 45.108C635.986 47.5907 636.442 50.3647 636.442 53.43C636.442 56.5207 635.986 59.3073 635.074 61.79C634.162 64.2727 632.858 66.388 631.16 68.136C629.488 69.884 627.462 71.2267 625.08 72.164C622.724 73.1013 620.102 73.57 617.214 73.57C614.301 73.57 611.654 73.1013 609.272 72.164C606.891 71.2267 604.852 69.884 603.154 68.136C601.482 66.388 600.178 64.2727 599.24 61.79C598.328 59.3073 597.872 56.5207 597.872 53.43C597.872 50.3647 598.328 47.5907 599.24 45.108C600.178 42.6253 601.482 40.5227 603.154 38.8C604.852 37.0773 606.891 35.7473 609.272 34.81C611.654 33.8727 614.301 33.404 617.214 33.404ZM617.214 66.35C620.457 66.35 622.851 65.2607 624.396 63.082C625.967 60.9033 626.752 57.7113 626.752 53.506C626.752 49.3007 625.967 46.096 624.396 43.892C622.851 41.688 620.457 40.586 617.214 40.586C613.921 40.586 611.476 41.7007 609.88 43.93C608.31 46.134 607.524 49.326 607.524 53.506C607.524 57.686 608.31 60.878 609.88 63.082C611.476 65.2607 613.921 66.35 617.214 66.35ZM675.93 40.966H662.022V73H652.636V40.966H638.766V34.012H675.93V40.966ZM704.748 36.482C705.204 35.7473 705.825 35.152 706.61 34.696C707.396 34.24 708.232 34.012 709.118 34.012H716.49L707.408 48.49C706.775 49.5033 706.129 50.3267 705.47 50.96C704.812 51.568 704.014 52.0493 703.076 52.404C704.343 52.784 705.382 53.354 706.192 54.114C707.003 54.8487 707.738 55.786 708.396 56.926L717.516 73H711.018C709.372 73 708.092 72.7213 707.18 72.164C706.268 71.6067 705.496 70.8087 704.862 69.77L699.124 58.978C698.618 58.0407 697.959 57.344 697.148 56.888C696.363 56.432 695.438 56.204 694.374 56.204H690.84V73H681.454V34.012H690.84V50.086H693.88C694.944 50.086 695.793 49.896 696.426 49.516C697.085 49.1107 697.642 48.5027 698.098 47.692L704.748 36.482ZM757.756 34.012V73H748.37V50.238C748.37 49.6553 748.395 49.022 748.446 48.338C748.522 47.6287 748.611 46.9193 748.712 46.21C748.205 47.3753 747.648 48.4013 747.04 49.288C746.989 49.3387 746.736 49.6933 746.28 50.352C745.824 50.9853 745.229 51.8087 744.494 52.822C743.785 53.8353 742.974 54.988 742.062 56.28C741.15 57.5467 740.225 58.8387 739.288 60.156C737.084 63.272 734.589 66.7933 731.802 70.72C731.447 71.252 730.979 71.7713 730.396 72.278C729.839 72.7847 729.193 73.038 728.458 73.038H722.72V34.05H732.106V56.812C732.106 57.3947 732.068 58.0407 731.992 58.75C731.941 59.434 731.865 60.1307 731.764 60.84C732.321 59.5987 732.879 58.5727 733.436 57.762C733.461 57.7113 733.702 57.3693 734.158 56.736C734.614 56.1027 735.197 55.2793 735.906 54.266C736.641 53.2527 737.464 52.1127 738.376 50.846C739.288 49.554 740.213 48.2367 741.15 46.894C743.354 43.778 745.862 40.2567 748.674 36.33C749.029 35.7727 749.497 35.2533 750.08 34.772C750.663 34.2653 751.321 34.012 752.056 34.012H757.756Z" fill="url(#paint0_linear)"/>
</g>
<defs>
<filter id="filter0_dddddd" x="0.725342" y="0.557983" width="774.031" height="108.514" filterUnits="userSpaceOnUse" color-interpolation-filters="sRGB">
<feFlood flood-opacity="0" result="BackgroundImageFix"/>
<feColorMatrix in="SourceAlpha" type="matrix" values="0 0 0 0 0 0 0 0 0 0 0 0 0 0 0 0 0 0 127 0"/>
<feOffset dx="-1" dy="1"/>
<feGaussianBlur stdDeviation="0.5"/>
<feColorMatrix type="matrix" values="0 0 0 0 0 0 0 0 0 0 0 0 0 0 0 0 0 0 0.3 0"/>
<feBlend mode="normal" in2="BackgroundImageFix" result="effect1_dropShadow"/>
<feColorMatrix in="SourceAlpha" type="matrix" values="0 0 0 0 0 0 0 0 0 0 0 0 0 0 0 0 0 0 127 0"/>
<feOffset dx="-2" dy="2"/>
<feGaussianBlur stdDeviation="1"/>
<feColorMatrix type="matrix" values="0 0 0 0 0 0 0 0 0 0 0 0 0 0 0 0 0 0 0.15 0"/>
<feBlend mode="normal" in2="effect1_dropShadow" result="effect2_dropShadow"/>
<feColorMatrix in="SourceAlpha" type="matrix" values="0 0 0 0 0 0 0 0 0 0 0 0 0 0 0 0 0 0 127 0"/>
<feOffset dx="-3" dy="3"/>
<feGaussianBlur stdDeviation="3"/>
<feColorMatrix type="matrix" values="0 0 0 0 0 0 0 0 0 0 0 0 0 0 0 0 0 0 0.15 0"/>
<feBlend mode="normal" in2="effect2_dropShadow" result="effect3_dropShadow"/>
<feColorMatrix in="SourceAlpha" type="matrix" values="0 0 0 0 0 0 0 0 0 0 0 0 0 0 0 0 0 0 127 0"/>
<feOffset dx="-3" dy="3"/>
<feGaussianBlur stdDeviation="10"/>
<feColorMatrix type="matrix" values="0 0 0 0 0 0 0 0 0 0 0 0 0 0 0 0 0 0 0.1 0"/>
<feBlend mode="normal" in2="effect3_dropShadow" result="effect4_dropShadow"/>
<feColorMatrix in="SourceAlpha" type="matrix" values="0 0 0 0 0 0 0 0 0 0 0 0 0 0 0 0 0 0 127 0"/>
<feOffset dx="0.5" dy="-0.5"/>
<feGaussianBlur stdDeviation="0.25"/>
<feColorMatrix type="matrix" values="0 0 0 0 1 0 0 0 0 1 0 0 0 0 1 0 0 0 0.45 0"/>
<feBlend mode="normal" in2="effect4_dropShadow" result="effect5_dropShadow"/>
<feColorMatrix in="SourceAlpha" type="matrix" values="0 0 0 0 0 0 0 0 0 0 0 0 0 0 0 0 0 0 127 0"/>
<feOffset dx="-0.5" dy="0.5"/>
<feGaussianBlur stdDeviation="0.5"/>
<feColorMatrix type="matrix" values="0 0 0 0 1 0 0 0 0 1 0 0 0 0 1 0 0 0 0.25 0"/>
<feBlend mode="normal" in2="effect5_dropShadow" result="effect6_dropShadow"/>
<feBlend mode="normal" in="SourceGraphic" in2="effect6_dropShadow" result="shape"/>
</filter>
<linearGradient id="paint0_linear" x1="-1367.79" y1="210.212" x2="-1113.12" y2="-738.897" gradientUnits="userSpaceOnUse">
<stop stop-color="#3C8291"/>
<stop offset="1" stop-color="#00B5AD"/>
</linearGradient>
</defs>
</svg>
