<svg width="28" height="28" viewBox="0 0 28 28" fill="none" xmlns="http://www.w3.org/2000/svg">
<path d="M13.9224 13.4556C16.0224 13.4556 17.6558 11.7445 17.6558 9.64447C17.6558 7.54447 15.9447 5.91113 13.8447 5.91113C11.7447 5.91113 10.1113 7.62224 10.1113 9.64447C10.1113 11.7445 11.8224 13.4556 13.9224 13.4556ZM13.8447 7.46669C13.9224 7.46669 13.9224 7.46669 13.8447 7.46669C15.0891 7.46669 16.1002 8.4778 16.1002 9.72224C16.1002 10.9667 15.0891 11.9 13.8447 11.9C12.6002 11.9 11.6669 10.8889 11.6669 9.72224C11.6669 8.4778 12.678 7.46669 13.8447 7.46669V7.46669Z" fill="#333333"/>
<path d="M25.4332 12.9889C23.9554 11.6667 22.0109 10.9666 19.9887 11.0444H19.3665C19.2109 11.6666 18.9776 12.2111 18.6665 12.6778C19.1332 12.6 19.5221 12.6 19.9887 12.6C21.4665 12.5222 22.9443 12.9889 24.1109 13.8444V19.4444H25.6665V13.2222L25.4332 12.9889Z" fill="#333333"/>
<path d="M18.2002 6.0667C18.5891 5.13337 19.678 4.6667 20.6891 5.05559C21.6224 5.44448 22.0891 6.53337 21.7002 7.54448C21.3891 8.24448 20.6891 8.71115 19.9891 8.71115C19.8335 8.71115 19.6002 8.71115 19.4447 8.63337C19.5224 9.02226 19.5224 9.41115 19.5224 9.72226V10.1889C19.678 10.1889 19.8335 10.2667 19.9891 10.2667C21.9335 10.2667 23.4891 8.71115 23.4891 6.84448C23.4891 4.90004 21.9335 3.34448 20.0669 3.34448C18.8224 3.34448 17.7336 3.9667 17.1113 5.05559C17.5002 5.28893 17.8891 5.60004 18.2002 6.0667V6.0667Z" fill="#333333"/>
<path d="M9.3335 12.7555C9.02239 12.2889 8.78905 11.7444 8.6335 11.1222H8.01127C5.98905 11.0444 4.04461 11.7444 2.56683 12.9889L2.3335 13.2222V19.4444H3.88905V13.8444C5.1335 12.9889 6.5335 12.5222 8.01127 12.6C8.47794 12.6 8.94461 12.6778 9.3335 12.7555Z" fill="#333333"/>
<path d="M8.0112 10.1889C8.16676 10.1889 8.32231 10.1889 8.47787 10.1111V9.64447C8.47787 9.25558 8.47787 8.86669 8.55565 8.55558C8.40009 8.63336 8.16676 8.63336 8.0112 8.63336C7.00009 8.63336 6.14454 7.77781 6.14454 6.76669C6.14454 5.75558 7.00009 4.90003 8.0112 4.90003C8.78898 4.90003 9.48898 5.3667 9.80009 6.0667C10.1112 5.67781 10.5779 5.28892 10.9668 4.97781C9.95565 3.34447 7.85565 2.80003 6.22231 3.81114C4.58898 4.82225 4.04454 6.92225 5.05565 8.55558C5.67787 9.56669 6.76676 10.1889 8.0112 10.1889V10.1889Z" fill="#333333"/>
<path d="M20.3001 17.6555L20.1445 17.4222C18.5889 15.7111 16.4112 14.7 14.0778 14.7777C11.7445 14.7 9.48894 15.7111 7.93339 17.4222L7.77783 17.6555V23.5666C7.77783 24.2666 8.32228 24.8889 9.10005 24.8889H19.0556C19.7556 24.8889 20.3778 24.2666 20.3778 23.5666V17.6555H20.3001ZM18.7445 23.3333H9.33339V18.2C10.5778 16.9555 12.2889 16.3333 14.0778 16.3333C15.7889 16.2555 17.5001 16.9555 18.7445 18.2V23.3333Z" fill="#333333"/>
</svg>
