<svg width="72" height="72" viewBox="0 0 72 72" fill="none" xmlns="http://www.w3.org/2000/svg">
<path d="M63.5443 58.8832C67.2244 54.4554 69.7839 49.2065 71.0063 43.5804C72.2288 37.9543 72.0782 32.1165 70.5673 26.5609C69.0564 21.0052 66.2297 15.8953 62.3262 11.6632C58.4228 7.43105 53.5574 4.20135 48.1418 2.24727C42.7262 0.293183 36.9195 -0.327801 31.2132 0.436849C25.5068 1.2015 20.0685 3.32929 15.3583 6.64021C10.6482 9.95114 6.80479 14.3478 4.15323 19.4583C1.50167 24.5687 0.119971 30.2427 0.125014 36C0.126949 44.3696 3.07636 52.4712 8.4557 58.8832L8.40445 58.9267C8.58383 59.142 8.78883 59.3265 8.97333 59.5392C9.20395 59.8031 9.45251 60.0517 9.69083 60.3079C10.4083 61.0869 11.1463 61.8352 11.9202 62.5373C12.156 62.7525 12.3994 62.9524 12.6377 63.1574C13.4577 63.8647 14.3008 64.536 15.1746 65.1613C15.2873 65.2382 15.3898 65.3381 15.5026 65.4175V65.3868C21.5042 69.6102 28.6638 71.8769 36.0026 71.8769C43.3413 71.8769 50.5009 69.6102 56.5026 65.3868V65.4175C56.6153 65.3381 56.7153 65.2382 56.8306 65.1613C57.7018 64.5335 58.5474 63.8647 59.3674 63.1574C59.6058 62.9524 59.8492 62.75 60.0849 62.5373C60.8588 61.8326 61.5968 61.0869 62.3143 60.3079C62.5526 60.0517 62.7986 59.8031 63.0318 59.5392C63.2138 59.3265 63.4213 59.142 63.6007 58.9242L63.5443 58.8832ZM36 15.5C38.2807 15.5 40.5101 16.1763 42.4064 17.4434C44.3027 18.7105 45.7807 20.5114 46.6535 22.6185C47.5263 24.7255 47.7546 27.0441 47.3097 29.2809C46.8648 31.5178 45.7665 33.5724 44.1538 35.1851C42.5412 36.7978 40.4865 37.896 38.2496 38.341C36.0128 38.7859 33.6943 38.5576 31.5872 37.6848C29.4801 36.812 27.6792 35.334 26.4121 33.4377C25.1451 31.5414 24.4688 29.312 24.4688 27.0313C24.4688 23.973 25.6837 21.04 27.8462 18.8775C30.0087 16.7149 32.9417 15.5 36 15.5ZM15.5179 58.8832C15.5624 55.5185 16.9298 52.3067 19.3242 49.9424C21.7186 47.5782 24.9476 46.2518 28.3125 46.25H43.6875C47.0524 46.2518 50.2814 47.5782 52.6758 49.9424C55.0703 52.3067 56.4376 55.5185 56.4821 58.8832C50.8621 63.9475 43.5652 66.7502 36 66.7502C28.4348 66.7502 21.1379 63.9475 15.5179 58.8832Z" fill="#949494"/>
</svg>
